<svg width="13" height="24" viewBox="0 0 13 24" fill="none" xmlns="http://www.w3.org/2000/svg">
<g clip-path="url(#clip0_96_74)">
<path d="M12.5713 0.34048V4.1217H10.3222C10.0241 4.0836 9.72124 4.11008 9.43426 4.19934C9.14728 4.2886 8.88287 4.43856 8.65896 4.63904L8.66095 4.63705C8.33908 5.08859 8.18714 5.63935 8.23198 6.19204V6.1841V8.89093H12.4312L11.8752 13.1309H8.23794V23.9999H3.852V13.1299H0.197876V8.89093H3.852V5.76805C3.8045 5.01379 3.91236 4.2578 4.1689 3.54693C4.42545 2.83605 4.82521 2.18541 5.34344 1.63531L5.34046 1.63829C5.86939 1.13709 6.49463 0.748573 7.17824 0.496295C7.86185 0.244016 8.58959 0.133238 9.3173 0.170682H9.30439C10.4347 0.152038 11.5648 0.213424 12.6864 0.354381L12.5703 0.342466L12.5713 0.34048Z" fill="#FFFBF0"/>
</g>
<defs>
<clipPath id="clip0_96_74">
<rect width="11.9156" height="23.8312" fill="white" transform="translate(0.196899 0.168701)"/>
</clipPath>
</defs>
</svg>
