<svg width="24" height="24" viewBox="0 0 24 24" fill="none" xmlns="http://www.w3.org/2000/svg">
<g clip-path="url(#clip0_96_70)">
<path d="M11.9168 8.50964C10.9687 8.50964 10.0595 8.88625 9.38913 9.55664C8.71874 10.227 8.34213 11.1363 8.34213 12.0843C8.34213 13.0324 8.71874 13.9416 9.38913 14.612C10.0595 15.2824 10.9687 15.659 11.9168 15.659C12.8649 15.659 13.7741 15.2824 14.4445 14.612C15.1149 13.9416 15.4915 13.0324 15.4915 12.0843C15.4915 11.1363 15.1149 10.227 14.4445 9.55664C13.7741 8.88625 12.8649 8.50964 11.9168 8.50964ZM11.9168 6.12651C13.4969 6.12651 15.0123 6.75421 16.1296 7.87151C17.2469 8.98882 17.8746 10.5042 17.8746 12.0843C17.8746 13.6644 17.2469 15.1798 16.1296 16.2971C15.0123 17.4144 13.4969 18.0421 11.9168 18.0421C10.3367 18.0421 8.82131 17.4144 7.70401 16.2971C6.5867 15.1798 5.959 13.6644 5.959 12.0843C5.959 10.5042 6.5867 8.98882 7.70401 7.87151C8.82131 6.75421 10.3367 6.12651 11.9168 6.12651ZM19.662 5.82862C19.662 6.22365 19.505 6.6025 19.2257 6.88182C18.9464 7.16115 18.5675 7.31807 18.1725 7.31807C17.7775 7.31807 17.3986 7.16115 17.1193 6.88182C16.84 6.6025 16.6831 6.22365 16.6831 5.82862C16.6831 5.43359 16.84 5.05475 17.1193 4.77542C17.3986 4.49609 17.7775 4.33917 18.1725 4.33917C18.5675 4.33917 18.9464 4.49609 19.2257 4.77542C19.505 5.05475 19.662 5.43359 19.662 5.82862ZM11.9168 2.55183C8.96889 2.55183 8.4875 2.56017 7.11601 2.62094C6.18182 2.66502 5.55506 2.79014 4.97358 3.01653C4.48722 3.19571 4.0474 3.482 3.68669 3.8542C3.31406 4.21479 3.02736 4.65462 2.84783 5.14109C2.62144 5.72496 2.49632 6.35053 2.45343 7.28352C2.39147 8.599 2.38312 9.05895 2.38312 12.0843C2.38312 15.0334 2.39147 15.5136 2.45224 16.8851C2.49632 17.8181 2.62144 18.4461 2.84664 19.0264C3.04921 19.5447 3.28752 19.9177 3.68312 20.3133C4.08468 20.7136 4.45763 20.9531 4.97001 21.1509C5.55864 21.3785 6.1854 21.5048 7.11482 21.5477C8.4303 21.6097 8.89025 21.6168 11.9156 21.6168C14.8647 21.6168 15.3449 21.6085 16.7164 21.5477C17.6482 21.5036 18.275 21.3785 18.8577 21.1533C19.344 20.9741 19.7838 20.6878 20.1446 20.3156C20.5461 19.9153 20.7856 19.5423 20.9834 19.0287C21.2098 18.4425 21.3361 17.8157 21.379 16.8839C21.441 15.5696 21.4481 15.1085 21.4481 12.0843C21.4481 9.1364 21.4398 8.65501 21.379 7.28352C21.3349 6.35172 21.2086 5.72257 20.9834 5.14109C20.8042 4.65473 20.5179 4.21491 20.1457 3.8542C19.7852 3.48157 19.3453 3.19487 18.8589 3.01534C18.275 2.78895 17.6482 2.66383 16.7164 2.62094C15.4021 2.55897 14.9422 2.55183 11.9156 2.55183M11.9156 0.168701C15.1531 0.168701 15.557 0.180617 16.8284 0.240195C18.0963 0.299773 18.9613 0.498764 19.7204 0.794271C20.5068 1.09693 21.1693 1.50683 21.8318 2.16814C22.4379 2.7636 22.9068 3.48419 23.2057 4.27959C23.5 5.03862 23.7002 5.90369 23.7598 7.1727C23.8158 8.44291 23.8312 8.84685 23.8312 12.0843C23.8312 15.3218 23.8193 15.7257 23.7598 16.9959C23.7002 18.2661 23.5 19.1288 23.2057 19.8891C22.9068 20.6845 22.4379 21.405 21.8318 22.0005C21.2363 22.6066 20.5158 23.0755 19.7204 23.3744C18.9613 23.6687 18.0963 23.8689 16.8284 23.9285C15.557 23.9845 15.1531 23.9999 11.9156 23.9999C8.67815 23.9999 8.27421 23.988 7.00281 23.9285C5.73499 23.8689 4.87111 23.6687 4.11089 23.3744C3.31549 23.0755 2.5949 22.6066 1.99944 22.0005C1.3933 21.405 0.924433 20.6845 0.62557 19.8891C0.330063 19.13 0.131072 18.265 0.0714937 16.9959C0.0142987 15.7257 0 15.3218 0 12.0843C0 8.84685 0.0119156 8.44291 0.0714937 7.1727C0.131072 5.9025 0.330063 5.03981 0.62557 4.27959C0.924433 3.48419 1.3933 2.7636 1.99944 2.16814C2.5949 1.562 3.31549 1.09313 4.11089 0.794271C4.86991 0.498764 5.7338 0.299773 7.00281 0.240195C8.2754 0.184191 8.67934 0.168701 11.9168 0.168701" fill="#FFFBF0"/>
</g>
<defs>
<clipPath id="clip0_96_70">
<rect width="23.8312" height="23.8312" fill="white" transform="translate(0 0.168701)"/>
</clipPath>
</defs>
</svg>
